<svg xmlns="http://www.w3.org/2000/svg" viewBox="0 0 59.86 60.26">
<g>
<g>
<path d="M17.46 25.44a3.51 3.51 0 0 1-2-6.55 31.91 31.91 0 0 1-.46-3.73l-15 15 10 10a30.47 30.47 0 0 1 9.71.27A30.91 30.91 0 0 1 22 32.71a30.77 30.77 0 0 1-4.54-7.27z" fill="#0083ce"></path>
<path d="M19.49 41.87a28.93 28.93 0 0 0-8.14-.39l8.31 8.31a30.49 30.49 0 0 1-.17-7.92z" fill="#0b318f"></path>
<path d="M20.54 20.9a3.51 3.51 0 0 1-1.6 4.1 28.58 28.58 0 0 0 3.75 6.22A30.2 30.2 0 0 1 34 19.08a3.51 3.51 0 0 1 6.24-2.85 29.69 29.69 0 0 1 4.93-1.18l-15-15-13.72 13.64a27.38 27.38 0 0 0 .46 4.75 3.51 3.51 0 0 1 3.63 2.46zM23.08 34a28.87 28.87 0 0 0-1.9 6.69 31 31 0 0 1 5.92 2.11 3.52 3.52 0 0 1 5.82 3.63A30.41 30.41 0 0 1 38.37 52l8.4-8.38A30.53 30.53 0 0 1 23.08 34z" fill="#1cb0f6"></path>
<path d="M46.13 16.4a29 29 0 0 0-5.67 1.21 3.5 3.5 0 0 1-6.22 2.86 28.79 28.79 0 0 0-10.89 12A28.94 28.94 0 0 0 48 42l11.86-11.88z" fill="#0b318f"></path>
<path d="M32.1 47.71a3.51 3.51 0 0 1-5.82-3.62 29 29 0 0 0-5.3-1.9 28.38 28.38 0 0 0 .62 9.52l8.53 8.55 7.15-7.15a28.12 28.12 0 0 0-5.18-5.4z" fill="#0083ce"></path>
</g>
</g>
</svg> 
